<svg height="50" viewBox="0 0 254 151" fill="none" xmlns="http://www.w3.org/2000/svg">
<path d="M100.828 2.90096C114.18 -1.95883 128.944 4.9256 133.804 18.2778L169.002 114.983C173.861 128.335 166.977 143.099 153.625 147.958C140.273 152.818 125.509 145.934 120.649 132.582L85.4515 35.8766C80.5917 22.5245 87.4761 7.76075 100.828 2.90096Z" fill="#303030"/>
<path d="M128.797 144.945C117.912 135.812 116.492 119.584 125.625 108.699L208.313 10.1559C217.446 -0.728887 233.674 -2.14865 244.559 6.98477C255.444 16.1182 256.864 32.3461 247.73 43.2309L165.043 141.774C155.909 152.659 139.681 154.079 128.797 144.945Z" fill="black"/>
<path d="M9.93413 144.945C-0.950653 135.812 -2.37041 119.584 6.763 108.699L89.4506 10.1559C98.584 -0.728887 114.812 -2.14865 125.697 6.98477C136.581 16.1182 138.001 32.3461 128.868 43.2309L46.1803 141.774C37.0469 152.659 20.8189 154.079 9.93413 144.945Z" fill="black"/>
</svg>
